<svg class="icon" style="width: 1em; height: 1em;vertical-align: middle;fill: currentColor;overflow: hidden;color: green;" viewBox="0 0 1024 1024" version="1.1" xmlns="http://www.w3.org/2000/svg" p-id="3597"><path d="M170.666667 614.4H34.133333c-10.24 0-17.066667 6.826667-17.066666 17.066667v170.666666c0 10.24 6.826667 17.066667 17.066666 17.066667h136.533334c10.24 0 17.066667-6.826667 17.066666-17.066667v-170.666666c0-10.24-6.826667-17.066667-17.066666-17.066667zM785.066667 785.066667h-136.533334c-10.24 0-17.066667 6.826667-17.066666 17.066666s6.826667 17.066667 17.066666 17.066667h136.533334c10.24 0 17.066667-6.826667 17.066666-17.066667s-6.826667-17.066667-17.066666-17.066666zM989.866667 785.066667h-136.533334c-10.24 0-17.066667 6.826667-17.066666 17.066666s6.826667 17.066667 17.066666 17.066667h136.533334c10.24 0 17.066667-6.826667 17.066666-17.066667s-6.826667-17.066667-17.066666-17.066666zM375.466667 443.733333H238.933333c-10.24 0-17.066667 6.826667-17.066666 17.066667v341.333333c0 10.24 6.826667 17.066667 17.066666 17.066667h136.533334c10.24 0 17.066667-6.826667 17.066666-17.066667v-341.333333c0-10.24-6.826667-17.066667-17.066666-17.066667zM580.266667 204.8h-136.533334c-10.24 0-17.066667 6.826667-17.066666 17.066667v580.266666c0 10.24 6.826667 17.066667 17.066666 17.066667h136.533334c10.24 0 17.066667-6.826667 17.066666-17.066667v-580.266666c0-10.24-6.826667-17.066667-17.066666-17.066667z" fill="" p-id="3598"></path></svg>